<svg width="68" height="93" viewBox="0 0 68 93" fill="none" xmlns="http://www.w3.org/2000/svg">
<path d="M0 14.202C0 9.8243 1.27341 6.36289 3.82022 3.81773C6.36704 1.27258 9.83072 0 14.2112 0H64.6382C65.3513 1.11987 65.9626 2.59606 66.4719 4.42857C67.0832 6.26109 67.3888 8.1954 67.3888 10.2315C67.3888 14.1002 66.5229 16.8489 64.791 18.4778C63.1611 20.1067 60.9708 20.9212 58.2202 20.9212H25.9775V35.1232H60.3596C61.0727 36.243 61.6839 37.7192 62.1933 39.5517C62.8045 41.2824 63.1101 43.1658 63.1101 45.202C63.1101 49.0706 62.2951 51.8194 60.6652 53.4483C59.0352 55.0772 56.845 55.8916 54.0944 55.8916H25.9775V71.9261H65.2494C65.9625 73.046 66.5738 74.5222 67.0831 76.3547C67.6944 78.1872 68 80.1215 68 82.1576C68 86.0263 67.1341 88.8259 65.4023 90.5566C63.7723 92.1855 61.582 93 58.8315 93H14.2112C9.83072 93 6.36704 91.7274 3.82022 89.1823C1.27341 86.6371 0 83.1757 0 78.798V14.202Z" fill="#FD4F6D"/>
</svg>
