<svg width="47" height="123" viewBox="0 0 47 123" fill="none" xmlns="http://www.w3.org/2000/svg">
<path d="M36.2226 121.26C35.0955 121.465 33.4049 121.721 31.1509 122.028C28.9992 122.438 26.7964 122.643 24.5423 122.643C22.2882 122.643 20.2391 122.489 18.3948 122.182C16.653 121.875 15.1674 121.26 13.9379 120.338C12.7084 119.416 11.735 118.186 11.0178 116.649C10.4031 115.01 10.0957 112.91 10.0957 110.348V47.7973C11.2227 47.5923 12.862 47.3362 15.0137 47.0288C17.2678 46.619 19.5219 46.4141 21.776 46.4141C24.03 46.4141 26.028 46.5678 27.7698 46.8751C29.614 47.1825 31.1509 47.7972 32.3804 48.7194C33.6099 49.6415 34.532 50.9222 35.1467 52.5616C35.864 54.0984 36.2226 56.1476 36.2226 58.7091V121.26Z" fill="#9055DB"/>
<path d="M12.1099 0C8.95958 0 6.15297 1.31739 4.03369 3.37939C1.97169 5.44139 0.654297 8.24801 0.654297 11.4556C0.654297 14.6058 1.97169 17.4125 4.03369 19.5317L23.5654 39.0635L43.0972 19.5317C45.1592 17.4697 46.4766 14.6631 46.4766 11.4556C46.4766 8.30529 45.1592 5.49867 43.0972 3.37939C41.0352 1.31739 38.2286 0 35.021 0C31.8707 0 29.0641 1.31739 26.9448 3.37939C24.8828 5.44139 23.5654 8.24801 23.5654 11.4556C23.5654 8.30529 22.248 5.49867 20.186 3.37939C18.124 1.31739 15.3174 0 12.1099 0Z" fill="#9055DB"/>
</svg>
