<svg width="72" height="103" viewBox="0 0 72 103" fill="none" xmlns="http://www.w3.org/2000/svg">
<path d="M72 88.0881C71.4926 92.905 70.0719 96.5945 67.7378 99.1567C65.5053 101.719 62.2072 103 57.8435 103C54.5962 103 51.704 102.231 49.167 100.694C46.63 99.0542 43.89 96.3383 40.9471 92.5463L25.8774 73.4836V101.463C24.7611 101.668 23.0867 101.924 20.8541 102.231C18.7231 102.641 16.5412 102.846 14.3087 102.846C12.0761 102.846 10.0465 102.693 8.21986 102.385C6.4947 102.078 5.02325 101.463 3.8055 100.54C2.58774 99.6179 1.62369 98.3881 0.913328 96.8508C0.304449 95.211 0 93.11 0 90.5478V1.53731C1.11628 1.22985 2.73998 0.922386 4.87105 0.614928C7.10361 0.204977 9.33616 0 11.5687 0C13.8013 0 15.7801 0.153728 17.5053 0.461187C19.3319 0.768652 20.8541 1.38358 22.0719 2.30597C23.2896 3.22836 24.203 4.50945 24.8119 6.14925C25.5222 7.68657 25.8774 9.73632 25.8774 12.2985V52.8836L52.0592 25.8269C57.3361 25.8269 61.5475 27.0055 64.6934 29.3627C67.9408 31.7199 69.5645 34.692 69.5645 38.2791C69.5645 39.8164 69.3108 41.2512 68.8034 42.5836C68.296 43.8134 67.4841 45.0945 66.3679 46.4269C65.3531 47.7592 63.9831 49.194 62.2579 50.7313C60.6342 52.1662 58.7061 53.8572 56.4736 55.8045L47.6448 63.491L72 88.0881Z" fill="#9055DB"/>
</svg>
