<svg width="65" height="96" viewBox="0 0 65 96" fill="none" xmlns="http://www.w3.org/2000/svg">
<path d="M14.2908 96C9.88574 96 6.40268 94.7076 3.84161 92.1228C1.28054 89.538 0 86.0226 0 81.5767V1.3958C1.12687 1.18902 2.91962 0.930538 5.37825 0.620358C7.83688 0.206787 10.1931 0 12.4468 0C14.803 0 16.8519 0.206787 18.5934 0.620358C20.4374 0.930538 21.974 1.55089 23.2033 2.48142C24.4326 3.41196 25.3546 4.70437 25.9693 6.35865C26.5839 8.01293 26.8913 10.1842 26.8913 12.8724V74.1325H62.0804C62.7975 75.2698 63.4634 76.8207 64.078 78.7851C64.6927 80.6462 65 82.6107 65 84.6785C65 88.8142 64.1292 91.7609 62.3877 93.5186C60.6462 95.1729 58.3412 96 55.4728 96H14.2908Z" fill="#FD4F6D"/>
</svg>
