<svg width="293" height="57" viewBox="0 0 293 57" fill="none" xmlns="http://www.w3.org/2000/svg">
<path d="M121.199 10.165C121.199 8.12729 121.791 6.51604 122.976 5.33131C124.161 4.14657 125.772 3.5542 127.81 3.5542H151.267C151.599 4.07548 151.883 4.76263 152.12 5.61565C152.405 6.46866 152.547 7.36906 152.547 8.31685C152.547 10.1177 152.144 11.3972 151.338 12.1554C150.58 12.9136 149.561 13.2928 148.282 13.2928H133.283V19.9036H149.277C149.609 20.4249 149.893 21.112 150.13 21.965C150.414 22.7707 150.557 23.6474 150.557 24.5952C150.557 26.396 150.177 27.6755 149.419 28.4337C148.661 29.1919 147.642 29.5711 146.363 29.5711H133.283V37.0349H151.552C151.883 37.5562 152.168 38.2433 152.405 39.0964C152.689 39.9494 152.831 40.8498 152.831 41.7976C152.831 43.5984 152.428 44.9016 151.623 45.7072C150.865 46.4654 149.846 46.8446 148.566 46.8446H127.81C125.772 46.8446 124.161 46.2522 122.976 45.0674C121.791 43.8827 121.199 42.2715 121.199 40.2337V10.165Z" fill="#FD4F6D"/>
<path d="M104.92 53.2422C104.257 53.8109 103.214 54.3085 101.793 54.735C100.418 55.1615 98.902 55.3747 97.2434 55.3747C95.253 55.3747 93.547 55.0904 92.1253 54.5217C90.7036 53.9057 89.7321 53.0763 89.2109 52.0338C88.6896 50.9438 88.0498 49.5458 87.2916 47.8398C86.5333 46.0864 85.7277 44.1434 84.8747 42.0109C84.0691 39.8783 83.2161 37.6273 82.3157 35.2579C81.4627 32.841 80.6333 30.4004 79.8277 27.9362C79.0221 25.4719 78.2639 23.0551 77.553 20.6856C76.8422 18.3161 76.2261 16.0888 75.7048 14.0037C76.3683 13.3402 77.3161 12.7478 78.5482 12.2265C79.8277 11.6579 81.1783 11.3735 82.6 11.3735C84.3534 11.3735 85.7751 11.7526 86.8651 12.5109C88.0024 13.2217 88.8317 14.5723 89.353 16.5627C90.6325 21.2069 91.9121 25.6615 93.1916 29.9265C94.5185 34.1442 95.8928 38.5514 97.3145 43.1482H97.741C99.0205 38.6936 100.324 33.8362 101.651 28.5759C103.025 23.3157 104.328 18.0792 105.56 12.8663C106.413 12.4398 107.314 12.0844 108.261 11.8C109.257 11.5157 110.37 11.3735 111.602 11.3735C113.356 11.3735 114.849 11.7763 116.081 12.582C117.313 13.3402 117.929 14.6197 117.929 16.4205C117.929 17.4631 117.668 18.9796 117.147 20.9699C116.673 22.9603 116.033 25.2113 115.228 27.7229C114.469 30.1872 113.593 32.7699 112.598 35.4711C111.65 38.1723 110.678 40.7314 109.683 43.1482C108.735 45.5177 107.835 47.6265 106.982 49.4747C106.129 51.2755 105.442 52.5314 104.92 53.2422Z" fill="#FD4F6D"/>
<path d="M27.3674 22.8181C27.3674 19.1217 27.9361 15.8518 29.0735 13.0084C30.2582 10.1651 31.8457 7.79558 33.8361 5.89999C35.8739 3.95703 38.2433 2.48795 40.9445 1.49277C43.6931 0.497591 46.655 0 49.8301 0C53.0052 0 55.9433 0.497591 58.6445 1.49277C61.3931 2.48795 63.7863 3.95703 65.8241 5.89999C67.8618 7.79558 69.4493 10.1651 70.5867 13.0084C71.7714 15.8518 72.3638 19.1217 72.3638 22.8181C72.3638 26.5144 71.7951 29.808 70.6578 32.6988C69.5204 35.5422 67.9329 37.9353 65.8951 39.8783C63.9048 41.7739 61.5353 43.2193 58.7867 44.2144C56.0381 45.2096 53.0526 45.7072 49.8301 45.7072C46.6076 45.7072 43.622 45.2096 40.8735 44.2144C38.1249 43.1719 35.7554 41.6791 33.765 39.7361C31.7747 37.7932 30.2108 35.4 29.0735 32.5566C27.9361 29.7132 27.3674 26.4671 27.3674 22.8181ZM40.1626 22.8181C40.1626 27.1305 41.0393 30.353 42.7927 32.4855C44.5461 34.6181 46.8919 35.6843 49.8301 35.6843C52.8156 35.6843 55.1851 34.6181 56.9385 32.4855C58.6919 30.353 59.5686 27.1305 59.5686 22.8181C59.5686 18.553 58.6919 15.3542 56.9385 13.2217C55.2325 11.0892 52.8867 10.0229 49.9012 10.0229C46.963 10.0229 44.5935 11.0892 42.7927 13.2217C41.0393 15.3068 40.1626 18.5056 40.1626 22.8181Z" fill="#FD4F6D"/>
<path d="M6.61084 50.6831C4.57309 50.6831 2.96185 50.0907 1.77711 48.906C0.592369 47.7212 0 46.11 0 44.0722V7.32164C0.521285 7.22687 1.3506 7.10839 2.48795 6.96622C3.6253 6.77666 4.71526 6.68188 5.75783 6.68188C6.84779 6.68188 7.79558 6.77666 8.6012 6.96622C9.45421 7.10839 10.1651 7.39273 10.7337 7.81924C11.3024 8.24574 11.7289 8.83811 12.0133 9.59634C12.2976 10.3546 12.4398 11.3498 12.4398 12.5819V40.6602H28.7181C29.0498 41.1815 29.3578 41.8923 29.6422 42.7927C29.9265 43.6457 30.0687 44.5461 30.0687 45.4939C30.0687 47.3895 29.6659 48.7401 28.8602 49.5457C28.0546 50.304 26.9883 50.6831 25.6614 50.6831H6.61084Z" fill="#FD4F6D"/>
<path d="M292.507 49.9012C292.27 52.1285 291.607 53.8346 290.517 55.0193C289.474 56.204 287.934 56.7964 285.896 56.7964C284.38 56.7964 283.029 56.441 281.844 55.7301C280.66 54.9719 279.38 53.7161 278.006 51.9627L270.968 43.1482V56.0856C270.447 56.1803 269.665 56.2988 268.623 56.441C267.627 56.6306 266.609 56.7253 265.566 56.7253C264.523 56.7253 263.576 56.6542 262.723 56.5121C261.917 56.3699 261.23 56.0856 260.661 55.6591C260.092 55.2326 259.642 54.6639 259.311 53.953C259.026 53.1948 258.884 52.2233 258.884 51.0386V9.88077C259.405 9.7386 260.164 9.59643 261.159 9.45426C262.201 9.2647 263.244 9.16992 264.286 9.16992C265.329 9.16992 266.253 9.241 267.059 9.38317C267.912 9.52534 268.623 9.80968 269.191 10.2362C269.76 10.6627 270.186 11.2551 270.471 12.0133C270.803 12.7241 270.968 13.6719 270.968 14.8567V33.6229L283.195 21.1121C285.659 21.1121 287.626 21.6571 289.095 22.747C290.611 23.837 291.37 25.2113 291.37 26.8699C291.37 27.5808 291.251 28.2442 291.014 28.8603C290.777 29.429 290.398 30.0213 289.877 30.6374C289.403 31.2535 288.763 31.9169 287.958 32.6277C287.199 33.2912 286.299 34.0731 285.256 34.9735L281.133 38.5277L292.507 49.9012Z" fill="#9055DB"/>
<path d="M239.193 34.2627C239.193 32.7937 238.767 31.7274 237.914 31.0639C237.108 30.3531 235.994 29.9977 234.573 29.9977C233.625 29.9977 232.677 30.1161 231.729 30.3531C230.829 30.59 230.047 30.9455 229.383 31.4194V56.0856C228.91 56.2278 228.151 56.37 227.109 56.5121C226.114 56.6543 225.071 56.7254 223.981 56.7254C222.938 56.7254 221.991 56.6543 221.138 56.5121C220.332 56.37 219.645 56.0856 219.076 55.6591C218.508 55.2326 218.057 54.6639 217.726 53.9531C217.441 53.1949 217.299 52.2234 217.299 51.0386V29.7133C217.299 28.4338 217.56 27.3912 218.081 26.5856C218.65 25.78 219.408 25.0455 220.356 24.382C221.967 23.2447 223.981 22.3206 226.398 21.6097C228.862 20.8989 231.587 20.5435 234.573 20.5435C239.928 20.5435 244.05 21.7282 246.941 24.0977C249.832 26.4198 251.277 29.6659 251.277 33.8362V56.0856C250.803 56.2278 250.045 56.37 249.003 56.5121C248.007 56.6543 246.965 56.7254 245.875 56.7254C244.832 56.7254 243.885 56.6543 243.032 56.5121C242.226 56.37 241.539 56.0856 240.97 55.6591C240.401 55.2326 239.951 54.6639 239.62 53.9531C239.335 53.1949 239.193 52.2234 239.193 51.0386V34.2627Z" fill="#9055DB"/>
<path d="M209.606 56.0856C209.085 56.1804 208.303 56.2988 207.26 56.441C206.265 56.6306 205.246 56.7254 204.204 56.7254C203.161 56.7254 202.213 56.6543 201.36 56.5121C200.555 56.3699 199.868 56.0856 199.299 55.6591C198.73 55.2326 198.28 54.6639 197.948 53.9531C197.664 53.1948 197.522 52.2233 197.522 51.0386V22.1073C198.043 22.0125 198.801 21.894 199.796 21.7519C200.839 21.5623 201.882 21.4675 202.924 21.4675C203.967 21.4675 204.891 21.5386 205.696 21.6808C206.549 21.823 207.26 22.1073 207.829 22.5338C208.398 22.9603 208.824 23.5527 209.108 24.3109C209.44 25.0217 209.606 25.9695 209.606 27.1543V56.0856Z" fill="#9055DB"/>
<path d="M168.328 56.3699C166.29 56.3699 164.679 55.7775 163.494 54.5927C162.309 53.408 161.717 51.7968 161.717 49.759V13.0084C162.238 12.9136 163.067 12.7952 164.205 12.653C165.342 12.4634 166.432 12.3687 167.475 12.3687C168.565 12.3687 169.512 12.4634 170.318 12.653C171.171 12.7952 171.882 13.0795 172.451 13.506C173.019 13.9325 173.446 14.5249 173.73 15.2831C174.014 16.0413 174.157 17.0365 174.157 18.2687V46.347H190.435C190.767 46.8682 191.075 47.5791 191.359 48.4795C191.643 49.3325 191.785 50.2329 191.785 51.1807C191.785 53.0763 191.383 54.4269 190.577 55.2325C189.771 55.9907 188.705 56.3699 187.378 56.3699H168.328Z" fill="#9055DB"/>
<path d="M198.453 0C196.996 0 195.698 0.609326 194.718 1.56305C193.764 2.51678 193.155 3.81491 193.155 5.29849C193.155 6.75557 193.764 8.0537 194.718 9.03392L203.752 18.0678L212.786 9.03392C213.74 8.08019 214.349 6.78206 214.349 5.29849C214.349 3.8414 213.74 2.54327 212.786 1.56305C211.832 0.609326 210.534 0 209.05 0C207.593 0 206.295 0.609326 205.315 1.56305C204.361 2.51678 203.752 3.81491 203.752 5.29849C203.752 3.8414 203.143 2.54327 202.189 1.56305C201.235 0.609326 199.937 0 198.453 0Z" fill="#9055DB"/>
</svg>
