<svg width="73" height="79" viewBox="0 0 73 79" fill="none" xmlns="http://www.w3.org/2000/svg">
<path d="M47.0376 29.9548C47.0376 26.7472 46.1214 24.4191 44.2887 22.9705C42.5579 21.4185 40.1653 20.6424 37.1109 20.6424C35.0746 20.6424 33.0383 20.9011 31.0021 21.4185C29.0676 21.9358 27.3877 22.7119 25.9623 23.7466V77.6031C24.9442 77.9136 23.3152 78.224 21.0753 78.5344C18.9372 78.8448 16.6973 79 14.3556 79C12.1158 79 10.0795 78.8448 8.24685 78.5344C6.51603 78.224 5.03975 77.6031 3.81799 76.6719C2.59623 75.7407 1.62897 74.499 0.916281 72.947C0.305402 71.2914 0 69.1703 0 66.5835V20.0216C0 17.2279 0.559935 14.9515 1.67988 13.1925C2.90164 11.4335 4.53067 9.82973 6.56693 8.38114C10.0286 5.89784 14.3556 3.88016 19.5481 2.3281C24.8424 0.776036 30.6966 0 37.1109 0C48.6158 0 57.4735 2.58678 63.6841 7.76032C69.8947 12.8304 73 19.9181 73 29.0236V77.6031C71.9819 77.9136 70.3528 78.224 68.1129 78.5344C65.9749 78.8448 63.735 79 61.3933 79C59.1534 79 57.1171 78.8448 55.2845 78.5344C53.5537 78.224 52.0774 77.6031 50.8556 76.6719C49.6339 75.7407 48.6667 74.499 47.954 72.947C47.3431 71.2914 47.0376 69.1703 47.0376 66.5835V29.9548Z" fill="#9055DB"/>
</svg>
