<svg width="97" height="99" viewBox="0 0 97 99" fill="none" xmlns="http://www.w3.org/2000/svg">
<path d="M0 49.423C0 41.4168 1.22591 34.3344 3.67773 28.1757C6.2317 22.0171 9.65403 16.8849 13.9447 12.7792C18.3375 8.57076 23.4455 5.3888 29.2686 3.23328C35.1938 1.07776 41.5787 0 48.4234 0C55.268 0 61.6019 1.07776 67.425 3.23328C73.3502 5.3888 78.5092 8.57076 82.9021 12.7792C87.2949 16.8849 90.7172 22.0171 93.169 28.1757C95.723 34.3344 97 41.4168 97 49.423C97 57.4292 95.7741 64.563 93.3223 70.8243C90.8705 76.9829 87.4481 82.1664 83.0553 86.3748C78.7646 90.4806 73.6567 93.6112 67.7314 95.7667C61.8062 97.9222 55.3702 99 48.4234 99C41.4766 99 35.0405 97.9222 29.1153 95.7667C23.1901 93.5085 18.0821 90.2753 13.7915 86.0669C9.50079 81.8585 6.12954 76.675 3.67773 70.5163C1.22591 64.3577 0 57.3266 0 49.423ZM27.5829 49.423C27.5829 58.7636 29.4729 65.7434 33.2528 70.3624C37.0326 74.9813 42.0895 77.2908 48.4234 77.2908C54.8594 77.2908 59.9674 74.9813 63.7472 70.3624C67.5271 65.7434 69.4171 58.7636 69.4171 49.423C69.4171 40.1851 67.5271 33.2566 63.7472 28.6376C60.0695 24.0187 55.0126 21.7092 48.5766 21.7092C42.2428 21.7092 37.1348 24.0187 33.2528 28.6376C29.4729 33.154 27.5829 40.0824 27.5829 49.423Z" fill="#FD4F6D"/>
</svg>
