<svg width="65" height="95" viewBox="0 0 65 95" fill="none" xmlns="http://www.w3.org/2000/svg">
<path d="M14.2908 95C9.88571 95 6.40268 93.7211 3.84161 91.1632C1.28054 88.6053 0 85.1265 0 80.727V1.38126C1.12687 1.17663 2.91962 0.920844 5.37825 0.613896C7.83688 0.204633 10.1931 0 12.4468 0C14.803 0 16.8519 0.204633 18.5934 0.613896C20.4374 0.920844 21.974 1.53474 23.2033 2.45558C24.4326 3.37642 25.3546 4.65536 25.9692 6.29241C26.5839 7.92946 26.8912 10.0781 26.8912 12.7383V73.3603H62.0803C62.7974 74.4857 63.4633 76.0205 64.078 77.9645C64.6927 79.8061 65 81.7501 65 83.7964C65 87.8891 64.1292 90.8051 62.3877 92.5444C60.6462 94.1815 58.3412 95 55.4728 95H14.2908Z" fill="#9055DB"/>
</svg>
