<svg width="91" height="95" viewBox="0 0 91 95" fill="none" xmlns="http://www.w3.org/2000/svg">
<path d="M62.9646 90.3958C61.5348 91.6236 59.2879 92.6979 56.2239 93.6187C53.2621 94.5396 49.9938 95 46.4192 95C42.1296 95 38.4529 94.3861 35.3889 93.1583C32.3249 91.8282 30.2312 90.0377 29.1077 87.7868C27.9843 85.4335 26.6055 82.4152 24.9714 78.7318C23.3373 74.9462 21.601 70.7512 19.7626 66.147C18.0264 61.5428 16.188 56.6828 14.2475 51.567C12.4091 46.3489 10.6218 41.0797 8.88552 35.7593C7.14927 30.4389 5.51516 25.2208 3.98317 20.105C2.45119 14.9892 1.12346 10.1804 0 5.67851C1.42985 4.24609 3.4725 2.96715 6.12794 1.84168C8.88552 0.613892 11.7963 0 14.8603 0C18.6392 0 21.7031 0.818519 24.0522 2.45557C26.5034 3.9903 28.2907 6.9063 29.4141 11.2036C32.1717 21.2305 34.9293 30.8481 37.6869 40.0565C40.5466 49.1626 43.5084 58.678 46.5724 68.6026H47.4916C50.2491 58.9849 53.0578 48.4976 55.9175 37.1405C58.8793 25.7835 61.688 14.4777 64.3434 3.22294C66.1818 2.3021 68.1223 1.53474 70.165 0.920838C72.3098 0.306946 74.7099 0 77.3653 0C81.1442 0 84.3614 0.869681 87.0168 2.60905C89.6723 4.24609 91 7.00861 91 10.8966C91 13.1475 90.4383 16.4216 89.3148 20.7189C88.2935 25.0162 86.9147 29.8761 85.1784 35.2989C83.5443 40.6193 81.6549 46.1955 79.5101 52.0275C77.4675 57.8595 75.3737 63.3845 73.2289 68.6026C71.1863 73.7184 69.2458 78.2714 67.4074 82.2617C65.569 86.1497 64.0881 88.8611 62.9646 90.3958Z" fill="#FD4F6D"/>
</svg>
